<?xml version="1.0" encoding="UTF-8"?>
<svg width="194px" height="42px" viewBox="0 0 194 42" version="1.1" xmlns="http://www.w3.org/2000/svg" xmlns:xlink="http://www.w3.org/1999/xlink">
    <!-- Generator: Sketch 64 (93537) - https://sketch.com -->
    <title>Group Copy</title>
    <desc>Created with Sketch.</desc>
    <g id="Web" stroke="none" stroke-width="1" fill="none" fill-rule="evenodd">
        <g id="Group-Copy" fill-rule="nonzero">
            <g id="Product-name" transform="translate(73.162503, 10.089524)" fill="#000000">
                <path d="M10.561805,21.4676563 L17.1904378,4.19482939 L17.1904378,18.5340174 C17.1904378,19.2285861 17.1354284,19.7312345 17.0254096,20.0419626 C16.9153908,20.3526907 16.7091056,20.5628892 16.4065539,20.6725579 C16.1040021,20.7822267 15.6226699,20.8553391 14.9625571,20.8918954 L14.9625571,20.8918954 L14.9625571,21.4402391 C15.8977169,21.3854047 17.3462978,21.3579875 19.3082998,21.3579875 C21.1786194,21.3579875 22.6180321,21.3854047 23.6265377,21.4402391 L23.6265377,21.4402391 L23.6265377,20.8918954 C23.0214343,20.8553391 22.576775,20.7822267 22.2925598,20.6725579 C22.0083445,20.5628892 21.8158116,20.3526907 21.7149611,20.0419626 C21.6141105,19.7312345 21.5636852,19.2285861 21.5636852,18.5340174 L21.5636852,18.5340174 L21.5636852,4.9350934 C21.5636852,4.2405247 21.6141105,3.7378763 21.7149611,3.42714819 C21.8158116,3.11642009 22.0037604,2.90622167 22.2788074,2.79655293 C22.5538544,2.68688418 23.0030979,2.61377169 23.6265377,2.57721544 L23.6265377,2.57721544 L23.6265377,2.02887173 C22.6180321,2.0837061 21.1786194,2.11112329 19.3082998,2.11112329 L17.355466,2.11112329 L12.2946011,15.3810411 L6.73865163,2.02887173 C5.5284448,2.0837061 4.07986391,2.11112329 2.39290894,2.11112329 L2.02460381,2.10983811 C1.18828901,2.1038406 0.513421076,2.07685181 8.79446932e-14,2.02887173 L8.79446932e-14,2.02887173 L8.79446932e-14,2.57721544 C0.605103411,2.61377169 1.04976274,2.68688418 1.33397797,2.79655293 C1.61819321,2.90622167 1.81072612,3.11642009 1.91157669,3.42714819 C2.01242725,3.7378763 2.06285254,4.2405247 2.06285254,4.9350934 L2.06285254,4.9350934 L2.06285254,17.2728269 C2.06285254,18.2050112 2.01242725,18.908719 1.91157669,19.3839502 C1.81072612,19.8591814 1.61819321,20.2064658 1.33397797,20.4258032 C1.04976274,20.6451407 0.605103411,20.8005048 8.79446932e-14,20.8918954 L8.79446932e-14,20.8918954 L8.79446932e-14,21.4402391 C0.586766944,21.3854047 1.38440326,21.3579875 2.39290894,21.3579875 C3.65812517,21.3579875 4.64829439,21.3854047 5.3634166,21.4402391 L5.3634166,21.4402391 L5.3634166,20.8918954 C4.53827558,20.8005048 3.94234041,20.6405712 3.57561107,20.4120946 C3.20888173,20.1836181 2.97050766,19.8180556 2.86048885,19.3154072 C2.75047005,18.8127588 2.69546065,18.02223 2.69546065,16.9438207 L2.69546065,16.9438207 L2.69546065,3.81098879 L10.1217298,21.4676563 L10.561805,21.4676563 Z M31.9054526,21.8240797 C33.3173606,21.8240797 34.4954786,21.4082524 35.4398066,20.5765978 C36.3841347,19.7449431 37.0396634,18.7350768 37.4063927,17.5469988 L37.4063927,17.5469988 L36.9113081,17.3824956 C35.9944847,18.8447455 34.7842779,19.5758705 33.2806876,19.5758705 C32.6572477,19.5758705 32.0750649,19.3930892 31.5341391,19.0275268 C30.9932134,18.6619643 30.5531382,18.0770643 30.2139135,17.2728269 C29.8746889,16.4685895 29.7050766,15.4632927 29.7050766,14.2569365 C29.7050766,13.6720365 29.7142448,13.2425006 29.7325813,12.9683288 L29.7325813,12.9683288 L37.4614021,12.9683288 C37.4614021,8.91058531 35.7377742,6.88171357 32.2905184,6.88171357 C30.2551706,6.88171357 28.623225,7.5351565 27.3946817,8.84204234 C26.1661384,10.1489282 25.5518668,12.0361445 25.5518668,14.5036912 C25.5518668,16.9164035 26.1248814,18.7396463 27.2709106,19.9734197 C28.4169397,21.207193 29.9617871,21.8240797 31.9054526,21.8240797 Z M33.9958098,12.4474022 L29.6775719,12.4474022 C29.7875907,10.7475367 30.0580535,9.49091573 30.4889605,8.67753923 C30.9198675,7.86416272 31.4653774,7.45747447 32.1254902,7.45747447 C32.7672665,7.45747447 33.2485988,7.92813616 33.569487,8.86945953 C33.8903751,9.8107829 34.0324828,11.0034305 33.9958098,12.4474022 L33.9958098,12.4474022 Z M44.4200913,21.8240797 C46.2354016,21.8240797 47.4914495,20.8827563 48.1882353,19.0001096 L48.1882353,19.0001096 L47.7206554,18.7533549 C47.2622437,19.8500423 46.6388038,20.3983861 45.8503358,20.3983861 C45.428597,20.3983861 45.1214612,20.2841478 44.9289283,20.0556712 C44.7363954,19.8271947 44.6401289,19.4387846 44.6401289,18.8904408 L44.6401289,18.8904408 L44.6401289,7.81389788 L47.8856836,7.81389788 L47.8856836,7.26555417 L44.6401289,7.26555417 L44.6401289,2.76913574 C43.5216044,3.3540357 42.2013788,3.64648568 40.6794521,3.64648568 L40.6794521,3.64648568 L40.6794521,7.26555417 L38.3690572,7.26555417 L38.3690572,7.81389788 L40.6794521,7.81389788 L40.6794521,17.0809066 C40.6794521,18.0862034 40.7482138,18.8767323 40.8857373,19.4524932 C41.0232608,20.028254 41.2845555,20.5080548 41.6696213,20.8918954 C42.2930612,21.5133516 43.2098845,21.8240797 44.4200913,21.8240797 Z M50.2235831,21.8789141 C50.6086489,21.5499078 51.1312382,21.2848751 51.7913511,21.0838157 C52.4514639,20.8827563 53.1115767,20.8096438 53.7716895,20.8644782 C54.5601576,21.5042125 55.5869997,21.8240797 56.852216,21.8240797 C58.7041991,21.8240797 60.2169577,21.1889149 61.3904915,19.9185853 C62.5640254,18.6482557 63.1507924,16.6696488 63.1507924,13.9827646 C63.1507924,11.679721 62.6923807,9.92045164 61.7755573,8.70495641 C60.858734,7.48946119 59.6576954,6.88171357 58.1724416,6.88171357 C57.2189453,6.88171357 56.3754678,7.10562059 55.6420091,7.55343462 C54.9085505,8.00124865 54.3492882,8.64555251 53.9642224,9.4863462 L53.9642224,9.4863462 L53.9642224,-9.49702749e-14 C52.8823708,0.255893732 51.5438088,0.383840598 49.9485361,0.383840598 C49.3801056,0.383840598 48.8116752,0.356423412 48.2432447,0.301589041 L48.2432447,0.301589041 L48.2432447,0.877349938 C48.885021,0.877349938 49.3388486,1.06927024 49.6047274,1.45311083 C49.8706061,1.83695143 50.0035455,2.44926858 50.0035455,3.29006227 L50.0035455,3.29006227 L50.0035455,20.096797 C50.0035455,20.6634188 49.9393679,21.1752063 49.8110126,21.6321594 L49.8110126,21.6321594 L50.2235831,21.8789141 Z M55.9995702,21.2483188 C55.2477751,21.2483188 54.5693258,21.0015641 53.9642224,20.5080548 L53.9642224,20.5080548 L53.9642224,10.4459477 C54.1292506,9.71482275 54.4547229,9.13449232 54.9406393,8.70495641 C55.4265556,8.27542051 55.9628973,8.06065255 56.5496642,8.06065255 C57.3381323,8.06065255 57.9432357,8.54959236 58.3649745,9.52747198 C58.7867132,10.5053516 58.9975826,12.118396 58.9975826,14.3666052 C58.9975826,16.6879269 58.7500403,18.4152096 58.2549557,19.5484533 C57.7598711,20.681697 57.0080759,21.2483188 55.9995702,21.2483188 Z M70.164491,21.8240797 C72.2731847,21.8240797 73.7492703,20.9741469 74.5927478,19.2742814 L74.5927478,19.2742814 L74.5927478,21.7418281 C75.6745993,21.4859344 77.0131614,21.3579875 78.6084341,21.3579875 C79.1768645,21.3579875 79.745295,21.3854047 80.3137255,21.4402391 L80.3137255,21.4402391 L80.3137255,20.8644782 C79.6719491,20.8644782 79.2181216,20.6725579 78.9522428,20.2887173 C78.686364,19.9048767 78.5534247,19.2925596 78.5534247,18.4517659 L78.5534247,18.4517659 L78.5534247,6.96396513 C77.4715731,7.21985886 76.133011,7.34780573 74.5377384,7.34780573 C73.9876444,7.34780573 73.4192139,7.32038854 72.832447,7.26555417 L72.832447,7.26555417 L72.832447,7.84131507 C73.4742233,7.84131507 73.9280509,8.03323537 74.1939296,8.41707597 C74.4598084,8.80091656 74.5927478,9.41323371 74.5927478,10.2540274 L74.5927478,10.2540274 L74.5927478,17.43733 C74.5927478,18.3329581 74.3314531,19.0869307 73.8088638,19.6992478 C73.2862745,20.311565 72.6582505,20.6177235 71.9247918,20.6177235 C71.2830155,20.6177235 70.8475244,20.4258032 70.6183186,20.0419626 C70.3891127,19.658122 70.2745098,19.0823611 70.2745098,18.31468 L70.2745098,18.31468 L70.2745098,6.96396513 C69.1926583,7.21985886 67.8540962,7.34780573 66.2588235,7.34780573 C65.6903931,7.34780573 65.1219626,7.32038854 64.5535321,7.26555417 L64.5535321,7.26555417 L64.5535321,7.84131507 C65.1953084,7.84131507 65.649136,8.03323537 65.9150148,8.41707597 C66.1808935,8.80091656 66.3138329,9.41323371 66.3138329,10.2540274 L66.3138329,10.2540274 L66.3138329,17.1905753 C66.3138329,18.1044815 66.3825947,18.840176 66.5201182,19.3976588 C66.6576417,19.9551416 66.8730952,20.4075251 67.1664786,20.7548095 C67.7899185,21.4676563 68.789256,21.8240797 70.164491,21.8240797 Z M86.8598442,26.59467 C88.620145,26.59467 90.1053989,26.3661934 91.3156057,25.9092403 C92.5258125,25.4522873 93.4288835,24.8445396 94.0248187,24.0859975 C94.6207539,23.3274554 94.9187215,22.4820922 94.9187215,21.5499078 C94.9187215,20.3252736 94.4373892,19.4159369 93.4747247,18.8218979 C92.5120602,18.2278589 91.2239234,17.9308394 89.6103143,17.9308394 L89.6103143,17.9308394 L86.6123019,17.9308394 C85.8788432,17.9308394 85.5121139,17.6383894 85.5121139,17.0534894 C85.5121139,16.5234238 85.8880115,16.0390535 86.6398066,15.6003786 L86.6398066,15.6003786 L87.1348912,15.6003786 C88.7851732,15.6003786 90.109983,15.2348161 91.1093204,14.5036912 C92.1086579,13.7725662 92.6083266,12.6850178 92.6083266,11.2410461 C92.6083266,10.1626368 92.3241114,9.28528684 91.7556809,8.60899626 C91.957382,8.26171191 92.2003402,7.97383147 92.4845555,7.74535492 C92.7687707,7.51687837 93.1309159,7.31124948 93.5709911,7.12846824 C93.3509535,7.58542134 93.2409347,8.03323537 93.2409347,8.47191034 C93.2409347,8.92886343 93.36929,9.28071731 93.6260005,9.52747198 C93.8827111,9.77422665 94.194431,9.89760399 94.5611604,9.89760399 C94.9462262,9.89760399 95.2808667,9.75594853 95.5650819,9.47263761 C95.8492972,9.18932669 95.9914048,8.7917775 95.9914048,8.27999004 C95.9914048,7.76820257 95.8309607,7.35237526 95.5100725,7.03250809 C95.1891843,6.71264093 94.7536933,6.55270735 94.2035992,6.55270735 C93.6718417,6.55270735 93.1492524,6.69893234 92.6358313,6.99138232 C92.1224102,7.2838323 91.6915033,7.67681196 91.3431104,8.1703213 C90.3712776,7.31124948 88.9685379,6.88171357 87.1348912,6.88171357 C85.4846092,6.88171357 84.1597994,7.24727605 83.160462,7.978401 C82.1611245,8.70952594 81.6614558,9.7970743 81.6614558,11.2410461 C81.6614558,12.5022366 82.0465216,13.4892553 82.8166532,14.2021021 C83.5867849,14.9149489 84.6319635,15.3536239 85.9521891,15.518127 C84.9803563,16.0116364 84.2560659,16.5234238 83.7793178,17.0534894 C83.3025696,17.583555 83.0641955,18.1867331 83.0641955,18.8630237 C83.0641955,19.6672611 83.3942519,20.2658697 84.0543648,20.6588493 C84.7144776,21.051829 85.6313009,21.2483188 86.8048348,21.2483188 L86.8048348,21.2483188 L88.5101262,21.2483188 C89.6286507,21.2483188 90.4125347,21.421961 90.8617781,21.7692453 C91.3110216,22.1165297 91.5356433,22.5917609 91.5356433,23.194939 C91.5356433,24.1271233 91.1368251,24.8491092 90.3391888,25.3608966 C89.5415525,25.8726841 88.500958,26.1285778 87.2174053,26.1285778 C85.988862,26.1285778 85.0261975,25.9229489 84.3294118,25.5116912 C83.632626,25.1004334 83.2842331,24.5109639 83.2842331,23.7432827 C83.2842331,23.0304359 83.6142896,22.3998406 84.2744024,21.8514969 L84.2744024,21.8514969 L84.0268601,21.4128219 C83.0183544,21.6687156 82.257391,22.0205695 81.7439699,22.4683836 C81.2305488,22.9161976 80.9738383,23.4234155 80.9738383,23.9900374 C80.9738383,24.8308311 81.51018,25.4751349 82.5828633,25.9229489 C83.6555466,26.370763 85.0812069,26.59467 86.8598442,26.59467 Z M87.1348912,15.1068692 C86.6214701,15.1068692 86.2318202,14.8144193 85.9659414,14.2295193 C85.7000627,13.6446193 85.5671233,12.6484616 85.5671233,11.2410461 C85.5671233,9.83363055 85.7000627,8.83747281 85.9659414,8.25257285 C86.2318202,7.66767289 86.6214701,7.37522291 87.1348912,7.37522291 C87.6483123,7.37522291 88.0379622,7.66767289 88.303841,8.25257285 C88.5697198,8.83747281 88.7026591,9.83363055 88.7026591,11.2410461 C88.7026591,12.6484616 88.5697198,13.6446193 88.303841,14.2295193 C88.0379622,14.8144193 87.6483123,15.1068692 87.1348912,15.1068692 Z M107.158313,21.6321594 C108.350184,21.6321594 109.358689,21.2940141 110.18383,20.6177235 L110.18383,20.6177235 L109.908783,20.1516314 C109.523717,20.4623595 109.193661,20.6177235 108.918614,20.6177235 C108.68024,20.6177235 108.519796,20.5263329 108.437282,20.3435517 C108.354768,20.1607704 108.313511,19.8500423 108.313511,19.4113674 L108.313511,19.4113674 L108.313511,11.9538929 C108.313511,10.9485961 108.244749,10.1534977 108.107225,9.56859776 C107.969702,8.9836978 107.699239,8.49018846 107.295837,8.08806974 C106.855761,7.64939477 106.305667,7.33866667 105.645555,7.15588543 C104.985442,6.97310419 104.206142,6.88171357 103.307655,6.88171357 C102.445841,6.88171357 101.652789,6.96396513 100.928499,7.12846824 C100.204208,7.29297136 99.5945205,7.5214479 99.0994359,7.81389788 C98.5860149,8.12462599 98.2055332,8.45820174 97.9579909,8.81462516 C97.7104486,9.17104857 97.5866774,9.60515401 97.5866774,10.1169415 C97.5866774,10.7201196 97.7608738,11.222768 98.1092667,11.6248867 C98.4576596,12.0270054 98.9527442,12.2280648 99.5945205,12.2280648 C100.199624,12.2280648 100.713045,12.0452835 101.134784,11.679721 C101.556523,11.3141586 101.767392,10.8206492 101.767392,10.199193 C101.767392,9.70568369 101.625284,9.27614778 101.341069,8.91058531 C101.056854,8.54502283 100.658036,8.27085098 100.144615,8.08806974 C100.603026,7.64939477 101.272307,7.43005729 102.152458,7.43005729 C102.904253,7.43005729 103.458931,7.64482524 103.816492,8.07436115 C104.174053,8.50389705 104.352834,9.1025056 104.352834,9.8701868 L104.352834,9.8701868 L104.352834,12.0087273 C104.352834,12.5022366 104.119044,12.8906467 103.651464,13.1739577 C103.183884,13.4572686 102.445841,13.7725662 101.437335,14.1198506 C100.483839,14.4488568 99.6999552,14.7595849 99.0856836,15.0520349 C98.4714119,15.3444848 97.9488226,15.7603122 97.5179157,16.2995168 C97.0870087,16.8387215 96.8715552,17.5195816 96.8715552,18.3420971 C96.8715552,19.3291158 97.1603546,20.1242142 97.7379533,20.7273923 C98.315552,21.3305704 99.1911183,21.6321594 100.364652,21.6321594 C102.143289,21.6321594 103.49102,20.8918954 104.407843,19.4113674 C104.42618,20.0876579 104.637049,20.6268626 105.040451,21.0289813 C105.443854,21.4311 106.149808,21.6321594 107.158313,21.6321594 Z M102.482514,19.8774595 C101.969093,19.8774595 101.556523,19.6992478 101.244803,19.3428244 C100.933083,18.986401 100.777223,18.4334878 100.777223,17.6840847 C100.777223,16.8250129 100.960587,16.1670004 101.327317,15.7100473 C101.694046,15.2530942 102.234972,14.7961411 102.950094,14.339188 C103.665216,13.9005131 104.132796,13.4983944 104.352834,13.1328319 L104.352834,13.1328319 L104.352834,18.7533549 C103.821076,19.502758 103.197636,19.8774595 102.482514,19.8774595 Z M116.344883,21.8240797 C118.160193,21.8240797 119.416241,20.8827563 120.113027,19.0001096 L120.113027,19.0001096 L119.645447,18.7533549 C119.187036,19.8500423 118.563596,20.3983861 117.775128,20.3983861 C117.353389,20.3983861 117.046253,20.2841478 116.85372,20.0556712 C116.661187,19.8271947 116.564921,19.4387846 116.564921,18.8904408 L116.564921,18.8904408 L116.564921,7.81389788 L119.810475,7.81389788 L119.810475,7.26555417 L116.564921,7.26555417 L116.564921,2.76913574 C115.446396,3.3540357 114.126171,3.64648568 112.604244,3.64648568 L112.604244,3.64648568 L112.604244,7.26555417 L110.293849,7.26555417 L110.293849,7.81389788 L112.604244,7.81389788 L112.604244,17.0809066 C112.604244,18.0862034 112.673006,18.8767323 112.810529,19.4524932 C112.948053,20.028254 113.209347,20.5080548 113.594413,20.8918954 C114.217853,21.5133516 115.134676,21.8240797 116.344883,21.8240797 Z" id="Metbugat"></path>
            </g>
            <g id="news" transform="translate(-0.000000, 0.000000)" fill="#02C98D">
                <path d="M53.3977975,9.6388543 L48.5629868,9.6388543 L48.5629868,4.88636364 C48.5629868,2.22772997 46.3936174,0 43.7281762,0 L4.83481064,0 C2.16894977,0 0,2.16204857 0,4.81942715 L0,33.73599 C0,38.1650938 3.61477636,41.7683686 8.05801773,41.7683686 L46.9513833,41.7683686 C51.3946247,41.7683686 55.009401,38.1650938 55.009401,33.73599 L55.009401,11.24533 C55.009401,10.3580032 54.2879566,9.6388543 53.3977975,9.6388543 Z M42.1165727,4.81942715 C42.1165727,3.91913138 42.8585818,3.18868701 43.7747616,3.21378808 C44.637641,3.23721586 45.3397797,3.98774128 45.3397797,4.88636364 L45.3397797,28.9165629 L42.1165727,28.9165629 L42.1165727,4.81942715 Z M3.22320709,33.73599 L3.22320709,4.81942715 C3.22320709,3.93377377 3.94633027,3.21295143 4.83481064,3.21295143 L39.1678418,3.21295143 C38.9877954,3.72166874 38.8933656,4.26259921 38.8933656,4.81942715 L38.8933656,33.73599 C38.8933656,35.5428569 39.4951987,37.2120855 40.5091659,38.5554172 L8.05801773,38.5554172 C5.39215686,38.5554172 3.22320709,36.3933686 3.22320709,33.73599 Z M51.7861939,33.73599 C51.7861939,36.3933686 49.6172442,38.5554172 46.9513833,38.5554172 C44.2855224,38.5554172 42.1165727,36.3933686 42.1165727,33.73599 L42.1165727,32.1295143 L46.9513833,32.1295143 C47.8415424,32.1295143 48.5629868,31.4103654 48.5629868,30.5230386 L48.5629868,12.8518057 L51.7861939,12.8518057 L51.7861939,33.73599 Z" id="Shape"></path>
                <path d="M34.0585549,6.42590286 L8.05801773,6.42590286 C7.16785861,6.42590286 6.44641418,7.14505179 6.44641418,8.03237858 C6.44641418,8.91970537 7.16785861,9.6388543 8.05801773,9.6388543 L34.0585549,9.6388543 C34.948714,9.6388543 35.6701585,8.91970537 35.6701585,8.03237858 C35.6701585,7.14505179 34.948714,6.42590286 34.0585549,6.42590286 Z" id="Path"></path>
                <path d="M34.0585549,12.8518057 L8.05801773,12.8518057 C7.16785861,12.8518057 6.44641418,13.5709547 6.44641418,14.4582814 C6.44641418,15.3456082 7.16785861,16.0647572 8.05801773,16.0647572 L34.0585549,16.0647572 C34.948714,16.0647572 35.6701585,15.3456082 35.6701585,14.4582814 C35.6701585,13.5709547 34.948714,12.8518057 34.0585549,12.8518057 Z" id="Path"></path>
                <path d="M21.1657266,19.2777086 L8.16545796,19.2777086 C7.27529885,19.2777086 6.55385442,19.9968575 6.55385442,20.8841843 L6.55385442,33.73599 C6.55385442,34.6233168 7.27529885,35.3424658 8.16545796,35.3424658 L21.1657266,35.3424658 C22.0558857,35.3424658 22.7773301,34.6233168 22.7773301,33.73599 L22.7773301,20.8841843 C22.7773301,19.9968575 22.0558857,19.2777086 21.1657266,19.2777086 Z M19.554123,32.1295143 L9.77706151,32.1295143 L9.77706151,22.49066 L19.554123,22.49066 L19.554123,32.1295143 Z" id="Shape"></path>
                <path d="M34.0585549,19.2777086 L27.5047005,19.2777086 C26.6145414,19.2777086 25.893097,19.9968575 25.893097,20.8841843 C25.893097,21.7715111 26.6145414,22.49066 27.5047005,22.49066 L34.0585549,22.49066 C34.948714,22.49066 35.6701585,21.7715111 35.6701585,20.8841843 C35.6701585,19.9968575 34.948714,19.2777086 34.0585549,19.2777086 Z" id="Path"></path>
                <path d="M34.0585549,25.7036115 L27.5047005,25.7036115 C26.6145414,25.7036115 25.893097,26.4227604 25.893097,27.3100872 C25.893097,28.197414 26.6145414,28.9165629 27.5047005,28.9165629 L34.0585549,28.9165629 C34.948714,28.9165629 35.6701585,28.197414 35.6701585,27.3100872 C35.6701585,26.4227604 34.948714,25.7036115 34.0585549,25.7036115 Z" id="Path"></path>
                <path d="M34.0585549,32.1295143 L27.5047005,32.1295143 C26.6145414,32.1295143 25.893097,32.8486632 25.893097,33.73599 C25.893097,34.6233168 26.6145414,35.3424658 27.5047005,35.3424658 L34.0585549,35.3424658 C34.948714,35.3424658 35.6701585,34.6233168 35.6701585,33.73599 C35.6701585,32.8486632 34.948714,32.1295143 34.0585549,32.1295143 Z" id="Path"></path>
            </g>
        </g>
    </g>
</svg>